<svg xmlns="http://www.w3.org/2000/svg" width="16" height="16" viewBox="0 0 16 16">
    <circle cx="8" cy="8" r="2.25" fill="none" stroke="currentColor" stroke-width="1.5" stroke-linecap="round" stroke-linejoin="round"/>
  <path d="M12.9 9.9a1.1 1.1 0 0 0 .22 1.21l.04.04a1.33 1.33 0 1 1-1.88 1.88l-.04-.04a1.1 1.1 0 0 0-1.21-.22 1.1 1.1 0 0 0-.67 1v.11a1.33 1.33 0 1 1-2.66 0v-.06a1.1 1.1 0 0 0-.72-1 1.1 1.1 0 0 0-1.21.22l-.04.04a1.33 1.33 0 1 1-1.88-1.88l.04-.04a1.1 1.1 0 0 0 .22-1.21 1.1 1.1 0 0 0-1-.67h-.11a1.33 1.33 0 1 1 0-2.66h.06a1.1 1.1 0 0 0 1-.72 1.1 1.1 0 0 0-.22-1.21l-.04-.04a1.33 1.33 0 1 1 1.88-1.88l.04.04a1.1 1.1 0 0 0 1.21.22h.05a1.1 1.1 0 0 0 .67-1v-.11a1.33 1.33 0 1 1 2.66 0v.06a1.1 1.1 0 0 0 .67 1 1.1 1.1 0 0 0 1.21-.22l.04-.04a1.33 1.33 0 1 1 1.88 1.88l-.04.04a1.1 1.1 0 0 0-.22 1.21v.05a1.1 1.1 0 0 0 1 .67h.11a1.33 1.33 0 1 1 0 2.66h-.06a1.1 1.1 0 0 0-1 .67Z" fill="none" stroke="currentColor" stroke-width="1.5" stroke-linecap="round" stroke-linejoin="round"/>
</svg>
